<svg width="30" height="30" viewBox="0 0 32 32" fill="none" xmlns="http://www.w3.org/2000/svg">
<path d="M10.8359 3.83984C10.2857 3.87357 9.74616 4.02213 9.25 4.30859C8.25768 4.8815 7.65609 5.88688 7.41406 6.98437C7.17204 8.08186 7.23169 9.30383 7.47266 10.6133C7.5052 10.7901 7.56611 10.9801 7.60547 11.1601C7.21547 11.281 6.80682 11.3937 6.44922 11.5312C5.19342 12.0142 4.13965 12.5923 3.34766 13.3125C2.55566 14.0327 2 14.9584 2 16C2 17.0416 2.55566 17.9673 3.34766 18.6875C4.13965 19.4077 5.19342 19.9857 6.44922 20.4687C6.83811 20.6183 7.27997 20.7413 7.70703 20.8711C7.64935 21.1614 7.5676 21.4667 7.52734 21.7461C7.34112 23.0386 7.342 24.2067 7.58594 25.2305C7.82987 26.2543 8.35961 27.1773 9.25 27.6914C10.1404 28.2055 11.2023 28.203 12.2109 27.9023C13.2195 27.6017 14.2355 27.0185 15.2617 26.2109C15.4822 26.0374 15.7046 25.8149 15.9258 25.6211C16.0855 25.7682 16.2417 25.9413 16.4023 26.0781C17.4159 26.9415 18.4442 27.6023 19.5156 27.9414C20.5871 28.2805 21.7577 28.2643 22.75 27.6914C23.7423 27.1185 24.3439 26.1131 24.5859 25.0156C24.828 23.9181 24.7683 22.6962 24.5273 21.3867C24.4948 21.2099 24.4339 21.0199 24.3945 20.8398C24.7845 20.719 25.1932 20.6063 25.5508 20.4687C26.8066 19.9857 27.8603 19.4077 28.6523 18.6875C29.4443 17.9673 30 17.0416 30 16C30 14.9584 29.4443 14.0327 28.6523 13.3125C27.8603 12.5923 26.8066 12.0142 25.5508 11.5312C25.1619 11.3817 24.72 11.2586 24.293 11.1289C24.3507 10.8386 24.4324 10.5333 24.4727 10.2539C24.6589 8.96139 24.658 7.79333 24.4141 6.76952C24.1701 5.74572 23.6404 4.82265 22.75 4.30859C21.8596 3.79452 20.7977 3.797 19.7891 4.09765C18.7805 4.3983 17.7645 4.98153 16.7383 5.78906C16.5178 5.96258 16.2954 6.18509 16.0742 6.3789C15.9145 6.2318 15.7583 6.05871 15.5977 5.92187C14.5841 5.05847 13.5558 4.39773 12.4844 4.05859C11.9486 3.88901 11.3862 3.80611 10.8359 3.83984ZM10.9727 5.82421C11.237 5.81051 11.5316 5.8549 11.8789 5.96484C12.5736 6.18471 13.4247 6.69562 14.3047 7.44531C14.4162 7.54028 14.5322 7.66729 14.6445 7.76952C13.97 8.49157 13.3085 9.29413 12.6641 10.1758C11.561 10.2845 10.5223 10.4505 9.53906 10.6601C9.51081 10.5284 9.4611 10.3822 9.4375 10.2539C9.22827 9.11693 9.21418 8.12558 9.37109 7.41406C9.528 6.70253 9.79895 6.29947 10.25 6.03906C10.4755 5.90885 10.7084 5.83792 10.9727 5.82421ZM21.1875 5.88671C21.4142 5.89699 21.5973 5.95091 21.75 6.03906C22.0553 6.21535 22.313 6.5605 22.4727 7.23046C22.6323 7.90043 22.6535 8.84984 22.4922 9.96874C22.462 10.1784 22.3942 10.4199 22.3516 10.6406C21.408 10.4438 20.4157 10.2844 19.3633 10.1797C18.7582 9.33172 18.1307 8.53354 17.4805 7.80468C17.6449 7.66247 17.8153 7.4902 17.9766 7.36327C18.865 6.66421 19.6994 6.20845 20.3594 6.01171C20.6894 5.91334 20.9608 5.87643 21.1875 5.88671ZM16.0469 9.20702C16.2812 9.47271 16.5141 9.73955 16.7461 10.0273C16.4943 10.022 16.2552 9.99999 16 9.99999C15.7621 9.99999 15.5396 10.0227 15.3047 10.0273C15.5524 9.73146 15.7989 9.47521 16.0469 9.20702ZM16 12C16.7791 12 17.5346 12.0374 18.2734 12.0898C18.6881 12.707 19.0877 13.3467 19.4648 14C19.8414 14.6523 20.1967 15.3177 20.5234 15.9844C20.2038 16.6519 19.855 17.3243 19.4648 18C19.0779 18.6702 18.6726 19.304 18.2578 19.9102C17.5237 19.9619 16.7738 20 16 20C15.2209 20 14.4654 19.9626 13.7266 19.9102C13.3119 19.293 12.9123 18.6532 12.5352 18C12.1586 17.3477 11.8033 16.6823 11.4766 16.0156C11.7962 15.3481 12.145 14.6757 12.5352 14C12.9221 13.3297 13.3274 12.696 13.7422 12.0898C14.4763 12.0381 15.2262 12 16 12ZM11.2031 12.3711C11.0726 12.5856 10.932 12.7795 10.8047 13C10.6772 13.2209 10.5778 13.4395 10.457 13.6601C10.3171 13.2981 10.1956 12.9458 10.0781 12.5937C10.4511 12.5165 10.8066 12.4342 11.2031 12.3711ZM20.8047 12.3711C21.1752 12.4301 21.5055 12.5106 21.8555 12.582C21.749 12.9242 21.6531 13.2581 21.5234 13.6133C21.411 13.4098 21.3117 13.2016 21.1953 13C21.0714 12.7853 20.9327 12.5829 20.8047 12.3711ZM23.8008 13.0742C24.1488 13.1815 24.5209 13.2787 24.832 13.3984C25.9288 13.8203 26.781 14.3168 27.3047 14.793C27.8284 15.2692 28 15.6609 28 16C28 16.3391 27.8284 16.7308 27.3047 17.207C26.781 17.6832 25.9288 18.1797 24.832 18.6016C24.5418 18.7132 24.1934 18.8054 23.8711 18.9062C23.5574 17.9428 23.161 16.9628 22.7109 15.9766C23.1498 14.9832 23.5135 14.0145 23.8008 13.0742ZM8.12891 13.0937C8.44255 14.0572 8.83899 15.0372 9.28906 16.0234C8.85023 17.0167 8.48651 17.9855 8.19922 18.9258C7.85122 18.8185 7.47914 18.7212 7.16797 18.6016C6.07123 18.1797 5.21899 17.6832 4.69531 17.207C4.17164 16.7308 4 16.3391 4 16C4 15.6609 4.17164 15.2692 4.69531 14.793C5.21899 14.3168 6.07123 13.8203 7.16797 13.3984C7.45815 13.2868 7.8066 13.1946 8.12891 13.0937ZM16 14C15.4696 14 14.9609 14.2107 14.5858 14.5858C14.2107 14.9609 14 15.4696 14 16C14 16.5304 14.2107 17.0391 14.5858 17.4142C14.9609 17.7893 15.4696 18 16 18C16.5304 18 17.0391 17.7893 17.4142 17.4142C17.7893 17.0391 18 16.5304 18 16C18 15.4696 17.7893 14.9609 17.4142 14.5858C17.0391 14.2107 16.5304 14 16 14V14ZM21.543 18.3398C21.6829 18.7019 21.8044 19.0542 21.9219 19.4062C21.5489 19.4835 21.1934 19.5658 20.7969 19.6289C20.9274 19.4143 21.068 19.2205 21.1953 19C21.3228 18.7791 21.4222 18.5605 21.543 18.3398ZM10.4766 18.3867C10.589 18.5902 10.6883 18.7984 10.8047 19C10.9286 19.2146 11.0673 19.4171 11.1953 19.6289C10.8248 19.5699 10.4945 19.4894 10.1445 19.418C10.251 19.0758 10.3469 18.7419 10.4766 18.3867ZM22.4609 21.3398C22.4892 21.4716 22.5389 21.6178 22.5625 21.7461C22.7717 22.8831 22.7858 23.8744 22.6289 24.5859C22.472 25.2975 22.2011 25.7005 21.75 25.9609C21.2989 26.2213 20.8157 26.255 20.1211 26.0352C19.4264 25.8153 18.5753 25.3044 17.6953 24.5547C17.5838 24.4597 17.4678 24.3327 17.3555 24.2305C18.03 23.5084 18.6915 22.7059 19.3359 21.8242C20.439 21.7155 21.4777 21.5495 22.4609 21.3398ZM9.64844 21.3594C10.592 21.5562 11.5843 21.7156 12.6367 21.8203C13.2418 22.6683 13.8693 23.4664 14.5195 24.1953C14.3551 24.3375 14.1847 24.5098 14.0234 24.6367C13.135 25.3358 12.3006 25.7915 11.6406 25.9883C10.9806 26.185 10.5553 26.1372 10.25 25.9609C9.94466 25.7846 9.68697 25.4395 9.52734 24.7695C9.36771 24.0996 9.3466 23.1501 9.50781 22.0312C9.53802 21.8216 9.60583 21.5801 9.64844 21.3594ZM15.2539 21.9727C15.5057 21.978 15.7448 22 16 22C16.2379 22 16.4604 21.9773 16.6953 21.9727C16.4476 22.2685 16.2011 22.5248 15.9531 22.793C15.7188 22.5273 15.4859 22.2604 15.2539 21.9727Z" fill="#828282"/>
</svg>
