<svg width="525" height="372" viewBox="0 0 525 372" fill="none" xmlns="http://www.w3.org/2000/svg">
<g clip-path="url(#clip0)">
<path d="M48.6108 332.717C75.3497 332.717 97.0258 331.187 97.0258 329.301C97.0258 327.414 75.3497 325.885 48.6108 325.885C21.872 325.885 0.195908 327.414 0.195908 329.301C0.195908 331.187 21.872 332.717 48.6108 332.717Z" fill="#D0CDE1"/>
<path d="M195.564 372C265.085 372 321.443 369.324 321.443 366.022C321.443 362.721 265.085 360.044 195.564 360.044C126.043 360.044 69.6856 362.721 69.6856 366.022C69.6856 369.324 126.043 372 195.564 372Z" fill="#D0CDE1"/>
<path d="M261.067 124.345L263.345 120.36L251.954 118.083L250.814 123.776L252.523 128.331L261.067 124.345Z" fill="#C3C3CB"/>
<path opacity="0.2" d="M261.067 124.345L263.345 120.36L251.954 118.083L250.814 123.776L252.523 128.331L261.067 124.345Z" fill="black"/>
<path d="M254.517 121.783C262.696 121.783 269.326 115.156 269.326 106.981C269.326 98.8058 262.696 92.1786 254.517 92.1786C246.338 92.1786 239.707 98.8058 239.707 106.981C239.707 115.156 246.338 121.783 254.517 121.783Z" fill="#FFB8B8"/>
<path d="M241.986 106.981L230.024 126.907L247.682 137.155L256.795 116.09L241.986 106.981Z" fill="#FFB8B8"/>
<path d="M240.847 130.323L225.468 124.061C225.468 124.061 202.115 128.046 199.836 135.447C197.558 142.848 197.558 202.627 197.558 202.627C197.558 202.627 191.862 217.429 199.836 217.999C199.836 217.999 197.558 221.414 199.836 221.984C202.115 222.553 225.468 221.984 234.581 224.83C243.694 227.677 261.921 229.954 261.921 227.108V221.984C261.921 221.984 265.908 217.999 263.63 211.167C261.352 204.335 258.504 189.533 258.504 189.533C258.504 189.533 275.591 151.957 273.883 147.403C272.174 142.848 251.312 128.765 251.312 128.765L240.847 130.323Z" fill="#C3C3CB"/>
<path d="M205.532 202.627L206.102 207.182L214.076 197.503H211.228L205.532 202.627Z" fill="#FFB8B8"/>
<path d="M240.847 130.323L224.329 126.338C224.329 126.338 220.911 123.491 220.911 120.075C220.911 116.659 226.037 111.535 229.455 108.12C229.752 107.815 230.109 107.573 230.502 107.41C230.896 107.246 231.318 107.164 231.745 107.169C235.128 107.14 239.229 111.575 239.229 111.575L234.678 119.164L234.473 119.5L240.847 130.323Z" fill="#C3C3CB"/>
<path d="M253.579 123.525L263.345 120.36C263.345 120.36 266.478 132.6 263.06 133.17C259.643 133.739 240.847 132.031 240.847 132.031L253.579 123.525Z" fill="#C3C3CB"/>
<path d="M200.975 219.137L193.571 261.267C193.571 261.267 190.723 266.391 191.862 268.668C193.001 270.945 193.571 270.945 191.862 272.084C190.153 273.223 187.875 272.084 188.445 274.931C188.786 276.618 188.976 278.333 189.014 280.055L173.066 334.709C173.066 334.709 162.813 339.264 170.218 342.111C177.622 344.957 185.027 347.235 186.736 344.388C188.445 341.541 186.736 338.125 186.736 338.125L212.937 275.5C212.937 275.5 216.924 269.807 216.924 266.391C216.924 262.975 230.024 238.494 230.024 238.494C230.024 238.494 230.594 262.975 231.164 264.683C231.733 266.391 230.024 269.807 230.024 272.084C230.024 274.361 228.885 274.361 230.024 275.5C231.164 276.639 231.164 289.733 231.164 289.733C231.164 289.733 224.329 340.403 228.316 340.972C232.303 341.541 243.695 340.403 243.695 338.125C243.695 335.848 241.986 335.279 241.986 335.279L249.39 292.01C249.39 292.01 248.821 289.164 249.96 286.886C251.099 284.609 251.099 284.609 251.099 283.471C251.099 282.332 250.53 281.763 251.099 281.193C251.471 280.702 251.671 280.102 251.669 279.485C251.669 279.485 250.53 276.069 251.099 275.5C251.669 274.931 264.2 232.232 260.213 227.108C256.225 221.984 200.975 219.137 200.975 219.137Z" fill="#2F2E41"/>
<path d="M228.885 339.264L224.898 348.373C224.898 348.373 215.785 358.621 222.62 360.898C229.455 363.176 231.733 362.606 231.733 362.606C231.733 362.606 234.581 363.176 234.581 364.314C234.581 365.453 257.365 373.993 259.073 366.591C260.782 359.19 241.416 345.527 241.416 345.527V338.695L228.885 339.264Z" fill="#2F2E41"/>
<path d="M184.95 343.48L185.813 353.386C185.813 353.386 191.168 366.009 183.963 365.981C176.758 365.954 174.782 364.686 174.782 364.686C174.782 364.686 171.901 364.315 171.537 365.393C171.173 366.472 146.853 367.279 147.603 359.72C148.352 352.162 171.074 345.407 171.074 345.407L173.26 338.935L184.95 343.48Z" fill="#2F2E41"/>
<path d="M240.093 111.033C241.007 110.972 241.617 109.975 241.87 109.027C242.123 108.079 242.188 107.04 242.705 106.225C244.121 103.992 247.803 104.894 249.298 102.722C250.217 101.386 250.025 99.2108 251.352 98.3608C252.191 97.824 253.259 98.1005 254.183 98.4377C257.763 99.7548 261.068 101.722 263.932 104.241L265.121 103.273L266.607 106.242C267.183 105.548 268.294 106.086 268.777 106.858C269.26 107.63 269.495 108.616 270.184 109.178C271.283 110.074 272.999 109.315 273.664 108.016C274.329 106.717 274.219 105.128 273.989 103.666C273.414 100.001 272.19 96.4688 270.373 93.2346L271.732 92.4195L269.975 92.1686L270.647 90.6435L268.807 90.622L269.533 89.3184C267.059 90.1672 264.502 88.6126 262.138 87.4536C258.185 85.515 253.738 84.5846 249.446 85.3048C247.246 85.6617 245.145 86.4726 243.277 87.6858C241.408 88.899 239.813 90.4878 238.593 92.3512C236.721 95.2923 235.641 99.563 236.576 103.085C237.427 106.287 241.139 106.785 240.093 111.033Z" fill="#2F2E41"/>
<path d="M203.254 133.17C203.254 133.17 199.836 132.6 197.558 137.155C195.28 141.71 178.192 178.146 186.736 189.533C195.28 200.919 203.254 204.335 203.254 204.335L204.963 204.904L213.506 195.795L210.658 191.81C210.658 191.81 210.658 187.825 208.38 187.255C206.102 186.686 206.102 188.394 205.532 186.117C204.963 183.839 207.811 185.547 204.963 183.27C202.115 180.993 204.393 179.854 204.393 179.854L203.254 133.17Z" fill="#C3C3CB"/>
<path d="M263.63 209.174L263.06 213.729L255.086 204.05H257.934L263.63 209.174Z" fill="#FFB8B8"/>
<path d="M262.776 145.41C262.776 145.41 270.75 141.425 273.028 145.979C275.307 150.534 290.97 184.693 282.426 196.08C273.883 207.466 265.908 210.882 265.908 210.882L264.2 211.451L255.656 202.342L258.504 198.357C258.504 198.357 258.504 194.372 260.782 193.802C263.06 193.233 263.06 194.941 263.63 192.664C264.2 190.387 261.352 192.094 264.2 189.817C267.048 187.54 264.769 186.401 264.769 186.401L262.776 145.41Z" fill="#C3C3CB"/>
<path opacity="0.2" d="M208.665 155.658L202.399 180.708L209.804 189.817L206.387 178.431L208.665 155.658Z" fill="black"/>
<path opacity="0.2" d="M239.229 111.575L234.678 119.164C231.819 118.174 231.579 111.541 231.745 107.169C235.128 107.14 239.229 111.575 239.229 111.575Z" fill="black"/>
<path d="M142.458 350.517C142.557 360.648 136.566 364.243 129.134 364.316C128.962 364.318 128.79 364.317 128.619 364.315C128.274 364.311 127.934 364.299 127.596 364.278C120.884 363.869 115.636 360.201 115.544 350.78C115.449 341.03 127.796 328.604 128.722 327.685L128.723 327.684C128.758 327.649 128.776 327.632 128.776 327.632C128.776 327.632 142.36 340.388 142.458 350.517Z" fill="#D0CDE1"/>
<path d="M123.098 301.651C123.168 308.802 118.939 311.34 113.693 311.391C113.571 311.392 113.45 311.392 113.329 311.39C113.086 311.388 112.846 311.379 112.607 311.364C107.869 311.075 104.165 308.486 104.1 301.836C104.033 294.954 112.748 286.182 113.402 285.534L113.403 285.533C113.428 285.509 113.441 285.496 113.441 285.496C113.441 285.496 123.029 294.5 123.098 301.651Z" fill="#D0CDE1"/>
<path d="M113.544 312.796C132.418 312.796 147.719 311.717 147.719 310.385C147.719 309.053 132.418 307.974 113.544 307.974C94.6693 307.974 79.3685 309.053 79.3685 310.385C79.3685 311.717 94.6693 312.796 113.544 312.796Z" fill="#D0CDE1"/>
<path d="M525 159.302H299.015V274.305H525V159.302Z" fill="#3F3D56"/>
<path d="M362.898 198.026H340.012V199.933H362.898V198.026Z" fill="#C3C3CB"/>
<path d="M393.413 198.026H370.527V199.933H393.413V198.026Z" fill="#C3C3CB"/>
<path d="M437.754 215.659H414.868V217.566H437.754V215.659Z" fill="#C3C3CB"/>
<path d="M468.745 215.659H445.86V217.566H468.745V215.659Z" fill="#C3C3CB"/>
<path d="M468.745 198.026H401.518V199.933H468.745V198.026Z" fill="#C3C3CB"/>
<path d="M407.24 215.659H340.012V217.566H407.24V215.659Z" fill="#C3C3CB"/>
<path d="M407.24 233.292H340.012V235.199H407.24V233.292Z" fill="#C3C3CB"/>
<path d="M468.745 233.292H422.02V235.199H468.745V233.292Z" fill="#C3C3CB"/>
<path d="M333.58 206.074L325.528 198.027L333.58 189.979L335.191 191.589L328.75 198.027L335.191 204.464L333.58 206.074Z" fill="#C3C3CB"/>
<path d="M490.435 243.247L488.824 241.636L495.265 235.198L488.824 228.761L490.435 227.151L498.487 235.198L490.435 243.247Z" fill="#C3C3CB"/>
<path d="M481.959 226.767L477.191 242.493L479.371 243.154L484.139 227.427L481.959 226.767Z" fill="#C3C3CB"/>
<path d="M52.864 314.084L95.0522 251.375L52.9503 320.83L53.0384 327.887C49.9585 327.91 46.9085 327.859 43.8884 327.733L45.9808 237.029L45.9235 236.329L46.0007 236.194L46.201 227.623L0 160.576L46.1465 221.208L46.3102 223.019L47.8907 154.489L7.9855 84.9764L48.0043 142.45L47.5866 0.472538L47.5875 0L47.6011 0.464741L50.2501 112.362L86.6189 66.9094L50.3692 122.002L51.1629 183.301L84.6297 123.475L51.2859 192.313L51.7278 226.398L100.398 143.062L51.8758 238.289L52.864 314.084Z" fill="#D0CDE1"/>
</g>
<defs>
<clipPath id="clip0">
<rect width="525" height="372" fill="white"/>
</clipPath>
</defs>
</svg>
