<svg width="126" height="403" viewBox="0 0 126 403" fill="none" xmlns="http://www.w3.org/2000/svg">
<path d="M97.8331 331L107 336.2L101.166 356.134L92.0004 357L87 345.733L97.8331 331Z" fill="#FFB9B9"/>
<path d="M69 370V380L54 379.091L54.209 370.855L69 370Z" fill="#FFB9B9"/>
<path d="M101 218L95.8731 282.055L79.6363 376L54 372.584L62.5451 298.281L59.1269 229.957L101 218Z" fill="#2F2E41"/>
<path d="M32.229 170L94.1229 170.858L101 218.037L58.8777 237.766L48.5621 275.509L101 331.266L80.3687 357C80.3687 357 51.141 317.541 29.65 295.239C8.15907 272.936 18.4747 205.17 18.4747 205.17L32.229 170Z" fill="#2F2E41"/>
<path d="M69.5 48C79.7173 48 88 39.4934 88 29C88 18.5066 79.7173 10 69.5 10C59.2827 10 51 18.5066 51 29C51 39.4934 59.2827 48 69.5 48Z" fill="#FFB9B9"/>
<path d="M76 42.5715V61.4286L63.0963 82C63.0963 82 43.3106 67.4286 47.6119 64C51.9131 60.5714 52.7733 34 52.7733 34L76 42.5715Z" fill="#FFB9B9"/>
<path d="M76.2128 57.7056L89 73.099L83.8848 180L43.8197 179.145L37 85.9275L45.5242 61.9815L51.3717 54L61.7212 69.6782L76.2128 57.7056Z" fill="white"/>
<path d="M97 113.529L106.382 149.49L97 185.451L112.353 206L126 140.928C126 140.928 115.765 87.8432 114.912 81.8497C114.059 75.8562 112.353 75 112.353 75L105.529 75.8562L97 113.529Z" fill="#2F2E41"/>
<path d="M28 127.104L22.0604 138.209L20.3629 157L23.7569 178.354L11.8785 198L0 144.187L12.7267 75H17.8181L28 127.104Z" fill="#2F2E41"/>
<path d="M101.123 330C101.123 330 113.247 333.447 117.576 334.308C121.906 335.17 114.979 351.541 114.979 351.541C114.979 351.541 110.649 373.945 109.783 378.253C108.917 382.561 102.855 397.209 95.0617 398.933C87.2681 400.656 92.4638 368.775 92.4638 368.775C92.4638 368.775 89 358.435 89 354.988C89 351.541 94.1957 353.265 94.1957 353.265C108.051 351.541 101.123 330 101.123 330Z" fill="#2F2E41"/>
<path d="M72.8849 395.886C72.0146 401.086 73.7552 401.086 59.8304 402.819C45.9055 404.552 49.3868 393.286 49.3868 393.286C49.969 387.976 51.1364 382.745 52.868 377.688C55.479 370.756 69.4038 379.421 69.4038 379.421C69.4038 379.421 73.7552 390.687 72.8849 395.886Z" fill="#2F2E41"/>
<path d="M52.9519 34.3281L52.4999 42C52.4999 42 46.9039 29.4124 46.0366 16.4727C45.1694 3.53301 59.9123 0.945065 68.5847 0.0824125C77.257 -0.78024 92 5.25828 92 12.1595C92 19.0607 76.3898 17.3354 70.3192 15.6101C64.2485 13.8848 61.6468 28.5498 61.6468 28.5498L58.1779 29.4125L52.9519 34.3281Z" fill="#2F2E41"/>
<path d="M81 63.9922L76.1033 58L62 69.846L76.1033 80L81 63.9922Z" fill="white"/>
<path d="M45 61.7585L51.2633 54L62 69.5169L48.5789 79L45 61.7585Z" fill="white"/>
<path d="M99.0431 124.996L95.6268 157.565L102.459 177.278L106.73 196.134C106.73 196.134 106.73 214.133 89.6483 214.99C72.567 215.847 58.0479 160.993 58.0479 160.993C58.0479 160.993 55.4857 172.993 53.7775 179.849C52.0694 186.706 23.0311 214.133 23.0311 214.133C23.0311 214.133 16.1986 213.276 10.2201 199.562C4.24162 185.849 22.177 172.993 22.177 172.993L27.3015 154.994L25.5933 132.71L13.6363 74.4274L49.0801 56L45.2368 105.283L58.0478 143.852L77.2643 58.5713L83.6698 63.2853L111 74.4274L99.0431 124.996Z" fill="#2F2E41"/>
</svg>
