<svg width="619" height="391" viewBox="0 0 619 391" fill="none" xmlns="http://www.w3.org/2000/svg">
<g clip-path="url(#clip0)">
<path opacity="0.1" d="M622.323 309.186C621.573 310.95 620.824 312.69 620.077 314.407C618.912 317.074 617.762 319.689 616.628 322.253C616.123 323.389 615.618 324.503 615.126 325.618C609.56 338.015 604.362 348.979 599.948 357.996C595.942 366.167 589.995 373.012 582.728 377.816C575.462 382.62 567.144 385.206 558.646 385.301L460.49 386.466H459.455L451.04 386.564L443.843 386.649L421.771 386.91H420.878L409.642 387.044H409.299L340.042 387.863L278.223 388.568L271.032 388.653L226.371 389.182H226.32L197.355 389.521H197.044L105.458 390.6L78.0593 390.925C72.2125 390.997 66.3902 390.088 60.797 388.23C51.0636 385.025 42.3162 378.987 35.4958 370.767C23.7287 356.635 15.1526 340.146 9.39198 322.253C8.55918 319.67 7.78247 317.055 7.06186 314.407C-12.8801 240.923 11.4308 146.117 55.1853 82.6728C57.0192 80.0199 58.8833 77.4328 60.7776 74.9116L60.8229 74.8552C74.2793 56.8493 89.3669 41.8068 105.438 31.1105C133.917 12.1239 165.471 6.77574 196.507 22.7143C222.766 36.2046 247.284 42.5476 271.051 44.2692C273.453 44.4385 275.854 44.5655 278.242 44.6431C332.761 46.5129 383.855 25.0991 443.856 11.2772C446.244 10.7269 448.639 10.1836 451.053 9.66853C493.856 0.383367 541.339 -4.51321 597.805 5.7809C603.672 6.8256 609.461 8.33478 615.126 10.2965C617.616 11.1714 620.015 12.1121 622.323 13.1187C649.275 25.0709 663.974 47.1549 670.22 74.827C670.812 77.3952 671.323 80.0081 671.754 82.6657C682.829 149.228 650.395 243.646 622.323 309.186Z" fill="white"/>
<g opacity="0.1">
<path opacity="0.1" d="M105.438 31.1081V390.675L78.0396 391C72.1928 391.072 66.3706 390.163 60.7773 388.305V74.8528H60.8226C74.2791 56.8258 89.3666 41.7832 105.438 31.1081Z" fill="#C6C6D0"/>
<path opacity="0.1" d="M671.787 82.6704H55.185C57.0189 80.0175 58.883 77.4305 60.7773 74.9093V74.8528H670.253C670.844 77.4069 671.355 80.0128 671.787 82.6704Z" fill="#C6C6D0"/>
<path opacity="0.1" d="M622.323 13.1234V314.397H620.077C618.912 317.064 617.762 319.68 616.627 322.243C616.123 323.379 615.618 324.494 615.126 325.609V10.273C617.615 11.1478 620.015 12.098 622.323 13.1234Z" fill="#C6C6D0"/>
<path opacity="0.1" d="M451.053 9.645V386.59L443.855 386.675V11.2537C446.244 10.7033 448.639 10.1601 451.053 9.645Z" fill="#C6C6D0"/>
<path opacity="0.1" d="M278.242 44.6196V388.636L271.051 388.721V44.2456C273.452 44.415 275.854 44.5138 278.242 44.6196Z" fill="#C6C6D0"/>
<path opacity="0.1" d="M620.077 314.404C618.912 317.071 617.762 319.687 616.627 322.25H9.3917C8.5589 319.668 7.7822 317.053 7.06158 314.404H620.077Z" fill="#C6C6D0"/>
</g>
<path d="M149.257 187.559H136.959V228.242H149.257V187.559Z" fill="#3F3D56"/>
<path d="M480.218 185.442H467.92V228.481H480.218V185.442Z" fill="#3F3D56"/>
<path d="M558.646 376.522V385.694L460.315 386.682L459.267 386.703L421.894 387.077L421.001 387.091L409.642 387.197H409.305L340.062 387.896L226.397 389.046H226.3L197.4 389.342L197.089 389.349L68.6738 390.633V380.05L98.8683 360.294L159.451 359.744L160.746 359.737L161.173 359.73L162.468 359.708L191.555 359.447L192.856 359.44L193.27 359.433L194.565 359.426L203.892 359.342L204.138 359.335L227.148 359.123H227.336L406.884 357.472L411.279 357.437H411.719L415.072 357.401L439.441 357.183L440.736 357.161L441.933 357.147H442.554L450.134 357.084L451.635 357.063L453.648 357.049L459.959 356.985L469.972 356.893L471.267 356.879L473.519 356.865H473.94L522.296 356.414L558.646 376.522Z" fill="#65617D"/>
<path opacity="0.2" d="M558.646 376.522V385.694L460.315 386.682L459.267 386.703L421.894 387.077L421.001 387.091L409.642 387.197H409.305L340.062 387.896L226.397 389.046H226.3L197.4 389.342L197.089 389.349L68.6738 390.633V380.05L98.8683 360.294L159.451 359.744L160.746 359.737L161.173 359.73L162.468 359.708L191.555 359.447L192.856 359.44L193.27 359.433L194.565 359.426L203.892 359.342L204.138 359.335L227.148 359.123H227.336L406.884 357.472L411.279 357.437H411.719L415.072 357.401L439.441 357.183L440.736 357.161L441.933 357.147H442.554L450.134 357.084L451.635 357.063L453.648 357.049L459.959 356.985L469.972 356.893L471.267 356.879L473.519 356.865H473.94L522.296 356.414L558.646 376.522Z" fill="black"/>
<path d="M191.652 341.251V358.53C191.653 359.349 191.44 360.15 191.039 360.842C190.638 361.534 190.065 362.088 189.387 362.439C188.882 362.706 188.33 362.85 187.769 362.862L165.18 363.384C164.576 363.4 163.978 363.262 163.432 362.982C162.742 362.637 162.157 362.084 161.748 361.387C161.338 360.69 161.121 359.88 161.121 359.052V341.251H191.652Z" fill="#3F3D56"/>
<path opacity="0.1" d="M191.652 341.251V358.53C191.653 359.349 191.44 360.15 191.039 360.842C190.638 361.534 190.065 362.088 189.387 362.439C188.882 362.706 188.33 362.85 187.769 362.862L165.18 363.384C164.576 363.4 163.978 363.262 163.432 362.982C162.742 362.637 162.157 362.084 161.748 361.387C161.338 360.69 161.121 359.88 161.121 359.052V341.251H191.652Z" fill="black"/>
<path d="M192.947 341.251V358.53C192.947 359.349 192.735 360.15 192.334 360.842C191.933 361.534 191.36 362.088 190.681 362.439C190.176 362.706 189.624 362.85 189.063 362.862L166.474 363.384C165.871 363.4 165.272 363.262 164.726 362.982C164.036 362.637 163.452 362.084 163.042 361.387C162.632 360.69 162.415 359.88 162.416 359.052V341.251H192.947Z" fill="#3F3D56"/>
<path d="M471.267 341.251H440.736V363.476H471.267V341.251Z" fill="#3F3D56"/>
<path opacity="0.1" d="M471.267 341.251H440.736V363.476H471.267V341.251Z" fill="black"/>
<path d="M469.972 341.251H439.441V363.476H469.972V341.251Z" fill="#3F3D56"/>
<path opacity="0.1" d="M149.257 187.552V191.595L136.959 191.249V187.552H149.257Z" fill="black"/>
<path d="M230.203 73.6604L215.426 189.372C215.332 190.111 214.992 190.787 214.47 191.27C213.949 191.753 213.282 192.009 212.598 191.99L94.2793 188.645L92.0333 188.582C91.6422 188.572 91.2575 188.472 90.9043 188.289C90.551 188.106 90.2371 187.844 89.983 187.519C89.729 187.195 89.5404 186.816 89.4298 186.407C89.3191 185.998 89.2887 185.569 89.3407 185.146L105.93 64.0154C106.037 63.2651 106.398 62.5858 106.942 62.1116C107.486 61.6374 108.173 61.4029 108.868 61.4543L227.614 70.2173C227.997 70.2415 228.371 70.352 228.713 70.5419C229.055 70.7317 229.357 70.9967 229.601 71.3203C229.844 71.6438 230.023 72.0188 230.127 72.4216C230.23 72.8243 230.256 73.2462 230.203 73.6604V73.6604Z" fill="#65617D"/>
<path d="M113.872 69.9633L101.36 176.736L210.099 180.496L223.471 77.4846L113.872 69.9633Z" fill="#C6C6D0"/>
<path d="M377.958 68.3123H252.384C250.479 68.3123 248.934 69.996 248.934 72.0729V186.846C248.934 188.923 250.479 190.607 252.384 190.607H377.958C379.864 190.607 381.408 188.923 381.408 186.846V72.0729C381.408 69.996 379.864 68.3123 377.958 68.3123Z" fill="#65617D"/>
<path d="M375.576 76.5462H255.187V178.38H375.576V76.5462Z" fill="#C6C6D0"/>
<path opacity="0.1" d="M480.218 185.435V188.109L467.92 188.384V185.435H480.218Z" fill="black"/>
<path d="M535.707 183.177C535.725 183.47 535.688 183.763 535.599 184.039C535.51 184.316 535.371 184.57 535.189 184.786C535.008 185.002 534.788 185.176 534.544 185.297C534.299 185.419 534.034 185.485 533.766 185.492L412.599 188.222C412.096 188.233 411.608 188.037 411.232 187.672C410.856 187.307 410.621 186.8 410.574 186.254L400.159 68.2276C400.134 67.9348 400.163 67.6393 400.245 67.3591C400.327 67.0789 400.46 66.8198 400.637 66.5975C400.814 66.3752 401.03 66.1943 401.273 66.0658C401.515 65.9373 401.78 65.8638 402.049 65.8499L522.296 59.3305L523.591 59.26C524.105 59.2304 524.61 59.4199 524.999 59.7885C525.388 60.1571 525.63 60.6759 525.675 61.2355L535.707 183.177Z" fill="#65617D"/>
<path d="M407.078 72.7855L516.898 66.9012L526.173 174.146L417.221 176.968L407.078 72.7855Z" fill="#C6C6D0"/>
<path opacity="0.1" d="M535.707 183.177C535.725 183.47 535.688 183.763 535.599 184.039C535.51 184.316 535.371 184.57 535.189 184.786C535.008 185.002 534.788 185.176 534.544 185.297C534.299 185.419 534.034 185.485 533.766 185.492L522.296 59.3305L523.591 59.26C524.105 59.2304 524.61 59.4199 524.999 59.7885C525.388 60.1571 525.63 60.6759 525.675 61.2355L535.707 183.177Z" fill="black"/>
<path opacity="0.1" d="M108.888 61.4472L94.2793 188.645L92.0333 188.582C91.6422 188.572 91.2575 188.472 90.9043 188.289C90.551 188.106 90.2371 187.844 89.983 187.519C89.729 187.195 89.5404 186.816 89.4298 186.407C89.3191 185.998 89.2887 185.569 89.3407 185.146L105.93 64.0154C106.036 63.2599 106.399 62.5757 106.947 62.0996C107.496 61.6235 108.189 61.3905 108.888 61.4472V61.4472Z" fill="black"/>
<path opacity="0.1" d="M149.257 216.191H136.959V228.242H149.257V216.191Z" fill="black"/>
<path opacity="0.1" d="M192.947 341.244V344.751L162.416 345.64V341.244H192.947Z" fill="black"/>
<path d="M246.831 220.389V339.064C246.823 339.788 246.56 340.482 246.096 341C245.632 341.519 245.003 341.824 244.339 341.851L120.292 345.449H120.26C119.585 345.44 118.939 345.143 118.461 344.623C117.984 344.102 117.712 343.398 117.703 342.662V220.389C117.712 219.652 117.984 218.949 118.461 218.428C118.939 217.907 119.585 217.611 120.26 217.602H244.274C244.95 217.611 245.595 217.907 246.073 218.428C246.55 218.949 246.822 219.652 246.831 220.389V220.389Z" fill="#65617D"/>
<path opacity="0.1" d="M120.292 217.602V345.449H120.26C119.585 345.44 118.939 345.143 118.461 344.623C117.984 344.102 117.712 343.398 117.703 342.662V220.389C117.712 219.652 117.984 218.949 118.461 218.428C118.939 217.907 119.585 217.611 120.26 217.602H120.292Z" fill="black"/>
<path d="M125.956 225.179H240.844V329.779L125.956 332.601V225.179Z" fill="#D4DFEC"/>
<path opacity="0.1" d="M480.218 216.191H467.92V228.481H480.218V216.191Z" fill="black"/>
<path opacity="0.1" d="M469.972 341.244V345.767L439.441 344.878V341.244H469.972Z" fill="black"/>
<path d="M510.264 220.389V342.662C510.255 343.405 509.979 344.113 509.494 344.635C509.01 345.157 508.356 345.449 507.675 345.449V345.449L383.602 341.851C382.938 341.824 382.309 341.519 381.845 341C381.381 340.482 381.118 339.788 381.11 339.064V220.389C381.119 219.652 381.391 218.949 381.869 218.428C382.346 217.907 382.992 217.611 383.667 217.602H507.681C508.361 217.603 509.013 217.897 509.496 218.418C509.98 218.94 510.255 219.647 510.264 220.389V220.389Z" fill="#65617D"/>
<path opacity="0.1" d="M510.264 220.389V342.662C510.255 343.405 509.979 344.113 509.494 344.635C509.01 345.157 508.356 345.449 507.675 345.449V345.449V217.602C508.356 217.602 509.01 217.894 509.494 218.416C509.979 218.937 510.255 219.646 510.264 220.389Z" fill="black"/>
<path d="M502.011 225.179H387.124V329.779L502.011 332.601V225.179Z" fill="#D4DFEC"/>
<path d="M377.9 220.389V339.064C377.892 339.788 377.629 340.482 377.165 341C376.701 341.519 376.072 341.824 375.408 341.851L251.362 345.449C250.681 345.449 250.027 345.157 249.542 344.635C249.058 344.113 248.781 343.405 248.773 342.662V220.389C248.781 219.652 249.053 218.949 249.531 218.428C250.008 217.907 250.654 217.611 251.329 217.602H375.343C376.019 217.611 376.664 217.907 377.142 218.428C377.62 218.949 377.892 219.652 377.9 220.389V220.389Z" fill="#65617D"/>
<path d="M257.025 225.179H371.913V329.779L257.025 332.601V225.179Z" fill="#D4DFEC"/>
<path opacity="0.1" d="M558.646 376.522V385.694L460.315 386.682L459.267 386.703L421.894 387.077L421.001 387.091L409.642 387.197H409.305L340.062 387.896L226.397 389.046H226.3L197.4 389.342L197.089 389.349L68.6738 390.633V380.05L199.749 379.111H200.06L226.591 378.914H226.714L409.939 377.594H410.127L410.237 377.587H410.541L413.642 377.566H414.587L462.801 377.213L465.648 377.199L466.283 377.192L558.646 376.522Z" fill="black"/>
<path d="M315.382 228.242C333.731 228.242 348.605 212.027 348.605 192.025C348.605 172.023 333.731 155.809 315.382 155.809C297.033 155.809 282.158 172.023 282.158 192.025C282.158 212.027 297.033 228.242 315.382 228.242Z" fill="#FBBEBE"/>
<path d="M348.612 266.109C348.612 266.109 284.21 274.576 290.359 266.109C292.585 263.047 293.2 253.973 293.077 243.637C293.038 240.497 292.935 237.244 292.786 234.006C292.074 218.484 290.359 203.314 290.359 203.314C290.359 203.314 346.67 174.386 340.198 197.317C337.608 206.581 338.456 219.591 340.424 231.805C341 235.368 341.667 238.86 342.366 242.176C344.072 250.265 346.157 258.253 348.612 266.109V266.109Z" fill="#FBBEBE"/>
<path opacity="0.1" d="M348.612 266.109C348.612 266.109 284.21 274.576 290.359 266.109C292.585 263.047 293.2 253.973 293.077 243.637C302.896 239.065 315.388 242.473 315.388 242.473C328.54 239.615 336.974 240.173 342.366 242.176C344.072 250.265 346.157 258.253 348.612 266.109V266.109Z" fill="black"/>
<path d="M226.371 389.843V389.25L340.042 387.903L409.298 387.197H409.493L409.421 388.241L409.518 387.197H409.641V387.077L410.528 377.587L410.865 373.996L410.968 372.874L411.059 371.936L415.059 357.394L419.059 342.874L422.425 330.646L427.564 311.963C427.564 311.963 424.651 304.555 423.033 302.438C421.415 300.321 419.797 285.858 419.797 285.858C419.797 285.858 405.984 271.513 399.946 269.862C397.415 269.157 392.418 268.219 387.11 267.04C385.123 266.603 383.085 266.137 381.123 265.629C380.017 265.354 378.929 265.065 377.887 264.775C375.859 264.223 373.86 263.55 371.9 262.757C370.872 262.35 369.894 261.808 368.987 261.142C364.23 257.339 352.308 256.908 351.848 256.908C351.847 256.892 351.847 256.875 351.848 256.859V256.796C351.865 256.499 351.865 256.203 351.848 255.906C351.848 255.624 351.848 255.293 351.79 254.919C351.79 254.806 351.79 254.686 351.744 254.566C351.712 254.312 351.673 254.044 351.615 253.762C351.595 253.636 351.569 253.511 351.537 253.388C351.35 252.537 351.079 251.712 350.728 250.925C350.683 250.812 350.625 250.692 350.573 250.58C350.256 249.928 349.887 249.307 349.473 248.724C349.388 248.604 349.298 248.477 349.201 248.357C348.671 247.675 348.081 247.052 347.44 246.494C347.265 246.346 347.084 246.191 346.897 246.05C346.792 245.957 346.682 245.872 346.566 245.796L345.99 245.387L345.453 245.048C344.981 244.766 344.482 244.491 343.939 244.229C343.77 244.145 343.589 244.067 343.408 243.99C343.227 243.912 342.942 243.792 342.702 243.693H342.663L342.178 243.482C341.809 243.348 341.434 243.228 341.039 243.108L340.437 242.938L339.79 242.776L339.142 242.628C338.495 242.487 337.803 242.36 337.078 242.261L336.34 242.162L335.582 242.078L334.799 242.007L333.686 241.936L332.392 241.887C326.682 241.886 320.989 242.546 315.408 243.856C311.53 242.915 307.558 242.517 303.589 242.67H303.026L302.378 242.713H301.964L301.129 242.797C300.851 242.797 300.566 242.861 300.288 242.903C300.009 242.945 299.718 242.981 299.44 243.03L299.013 243.108C298.592 243.185 298.165 243.27 297.718 243.369C297.576 243.397 297.433 243.432 297.291 243.475C296.728 243.609 296.165 243.771 295.608 243.954C295.33 244.039 295.051 244.138 294.773 244.244C294.631 244.286 294.495 244.342 294.359 244.399L293.945 244.561L293.537 244.738L293.051 244.949C292.805 245.062 292.566 245.182 292.326 245.309C292.19 245.373 292.055 245.443 291.925 245.521C291.796 245.598 291.66 245.662 291.537 245.739C290.073 246.564 288.721 247.604 287.517 248.83L287.187 249.175L286.864 249.535C286.754 249.655 286.65 249.782 286.546 249.909C286.125 250.412 285.731 250.942 285.368 251.497C285.265 251.645 285.168 251.793 285.071 251.948C284.66 252.609 284.288 253.297 283.957 254.009C283.873 254.178 283.796 254.354 283.718 254.524C283.19 255.716 282.757 256.955 282.423 258.228C282.303 258.698 282.193 259.169 282.093 259.639C282.093 259.639 268.391 266.229 257.025 270.998C254.002 272.268 251.155 273.418 248.773 274.286C248.08 274.54 247.433 274.773 246.831 274.992C245.525 275.506 244.166 275.848 242.785 276.008C242.135 276.02 241.485 276.086 240.844 276.205C235.62 277.13 226.669 281.144 225.691 285.173C225.612 285.495 225.59 285.83 225.627 286.161C225.627 286.161 225.627 286.21 225.627 286.238C226.274 291.177 221.743 290.472 221.743 290.472C221.743 290.472 220.125 303.525 217.86 307.053C216.222 309.593 215.102 315.258 214.96 319.534C214.879 320.866 214.975 322.204 215.245 323.506C215.245 323.541 215.245 323.577 215.245 323.605C215.504 324.55 214.882 327.133 213.827 330.442C212.682 334.075 211.012 338.591 209.407 342.853C206.986 349.287 204.707 355.129 204.565 356.413C204.507 356.985 204.339 358.008 204.105 359.327C203.161 364.704 201.063 374.941 200.028 379.083C199.258 382.173 198.138 386.407 197.368 389.314C197.368 389.398 197.322 389.483 197.303 389.561L226.319 389.25V389.843H226.41H226.371Z" fill="#C6C6D0"/>
<path opacity="0.1" d="M236.96 306.679C236.96 306.679 273.854 327.493 287.123 325.023L236.96 306.679Z" fill="black"/>
<path opacity="0.1" d="M312.042 298.212C312.042 298.212 347.965 310.912 359.939 312.676C371.913 314.44 312.042 298.212 312.042 298.212Z" fill="black"/>
<path opacity="0.1" d="M351.887 257.346C333.116 261.114 297.776 260.302 282.501 259.731C288.1 237.858 315.401 245.295 315.401 245.295C349.194 237.943 351.783 253.197 351.887 257.346Z" fill="black"/>
<path d="M351.887 255.935C333.116 259.702 297.776 258.891 282.501 258.319C288.1 236.447 315.401 243.884 315.401 243.884C349.194 236.532 351.783 251.786 351.887 255.935Z" fill="#C6C6D0"/>
<path d="M451.525 352.364C451.525 352.364 473.636 348.659 474.069 359.243C474.503 369.826 462.794 377.22 462.794 377.22L451.525 352.364Z" fill="#FBBEBE"/>
<path opacity="0.1" d="M340.424 231.805C339.473 232.268 338.501 232.678 337.511 233.032C330.534 235.657 323.498 238.303 316.152 239.262C308.806 240.222 301.097 239.375 294.689 235.382C294.016 234.967 293.368 234.508 292.747 234.006C292.035 218.484 290.32 203.314 290.32 203.314C290.32 203.314 346.631 174.386 340.159 197.317C337.582 206.581 338.456 219.591 340.424 231.805Z" fill="black"/>
<path d="M306.268 135.418C305.345 135.684 304.376 135.711 303.441 135.497C302.506 135.282 301.63 134.832 300.883 134.183L302.229 136.222C301.436 136.322 300.632 136.232 299.874 135.958C299.116 135.683 298.422 135.232 297.841 134.635C297.719 136.46 297.788 138.295 298.048 140.103C295.821 140.22 293.627 139.47 291.86 137.986C291.826 138.623 291.971 139.256 292.277 139.799C292.582 140.343 293.033 140.772 293.569 141.027C291.331 140.736 289.073 141.342 287.215 142.732C285.357 144.123 284.027 146.203 283.472 148.584L286.851 148.922C284.195 149.541 281.812 151.126 280.093 153.417C279.058 154.828 278.268 156.634 278.721 158.356C279.174 160.077 281.362 161.178 282.553 159.95C280.859 162.154 279.627 164.736 278.945 167.514C278.263 170.291 278.147 173.198 278.605 176.03C278.912 177.237 279.013 178.495 278.902 179.741C278.689 180.906 278.016 181.914 277.679 183.05C277.032 185.111 277.647 187.347 278.223 189.4L281.258 200.28C282.359 204.21 283.453 208.147 284.889 211.95C285.907 214.355 286.772 216.832 287.478 219.366C288.294 222.78 288.326 226.52 290.067 229.504C291.261 231.383 292.856 232.916 294.715 233.971C301.116 237.964 308.851 238.811 316.178 237.851C323.505 236.892 330.534 234.246 337.505 231.621C339.053 231.113 340.54 230.402 341.932 229.504C346.754 226.061 347.829 219.02 348.728 212.818C349.731 205.903 351.071 199.003 353.447 192.498C354.858 188.624 356.683 184.694 356.372 180.546C355.978 175.035 351.977 170.569 350.987 165.15C350.656 163.339 350.671 161.473 351.032 159.668C351.34 158.593 351.512 157.478 351.544 156.352C351.434 154.08 349.725 152.33 348.12 150.87C344.638 147.7 341.043 144.703 337.337 141.881C337.149 140.47 338.909 139.863 339.706 138.748C340.832 137.175 339.667 134.677 337.958 133.943C336.249 133.21 334.333 133.689 332.553 134.176C332.669 133.183 332.488 132.176 332.037 131.304C331.585 130.432 330.888 129.742 330.048 129.337C329.208 128.932 328.271 128.833 327.375 129.056C326.48 129.278 325.674 129.809 325.078 130.571C324.605 129.389 323.85 128.368 322.891 127.613C321.932 126.859 320.805 126.399 319.628 126.281C315.336 125.914 315.252 129.491 312.508 131.46C309.763 133.428 307.498 130.832 305.388 128.941C305 130.01 304.878 131.171 305.032 132.308C305.187 133.445 305.613 134.518 306.268 135.418V135.418Z" fill="#3F3D56"/>
<path d="M467.92 373.53C467.92 373.53 467.344 375.026 466.283 377.192C464.677 380.525 462.722 383.643 460.457 386.484L460.283 386.689H459.234L421.862 387.063H420.968L420.858 386.922L413.609 377.545L410.878 374.01L410.768 373.862L410.535 373.566L410.405 373.396L410.237 373.178L404.923 366.305L406.865 357.486L410.172 342.627L410.256 342.267L410.904 339.445L411.363 337.328L412.904 330.428L418.185 306.686L427.57 311.977L437.467 331.027L442.781 341.258H445.694C446.244 341.258 447.506 342.415 448.775 343.749C449.228 344.221 449.681 344.722 450.069 345.16C451.221 346.458 452.134 347.573 452.134 347.573C452.134 347.573 456.852 347.686 458.121 351.736C458.186 351.932 458.24 352.132 458.283 352.335C458.704 353.927 459.252 355.476 459.92 356.964C460.755 358.946 461.804 361.197 462.865 363.448C464.839 367.575 466.846 371.505 467.584 372.931L467.674 373.107L467.92 373.53Z" fill="#C6C6D0"/>
<path opacity="0.1" d="M412.321 341.674L412.256 342.683V342.754L412.146 344.377L411.286 357.437L410.243 373.171L409.946 377.601L409.298 387.084V387.204L340.042 387.91L226.391 389.25V389.843H226.3V389.25V389.053L226.591 378.921L227.148 359.123L227.627 342.338L227.672 340.665C227.7 339.656 227.917 338.664 228.309 337.749C228.701 336.834 229.26 336.016 229.952 335.344C230.644 334.673 231.454 334.162 232.333 333.843C233.211 333.524 234.141 333.404 235.064 333.49C238.119 333.772 242.086 334.118 246.831 334.485L248.773 334.64C276.171 336.714 326.806 339.395 377.9 336.051C378.975 335.988 380.055 335.917 381.136 335.832C389.059 335.289 396.975 334.591 404.813 333.716C405.804 333.602 406.805 333.727 407.747 334.082C408.689 334.436 409.548 335.011 410.264 335.767C410.98 336.522 411.535 337.439 411.89 338.454C412.246 339.469 412.393 340.556 412.321 341.639V341.674Z" fill="black"/>
<path d="M226.371 389.843V389.25L340.042 387.903L409.298 387.197H409.493V387.077L410.14 377.594L410.418 373.361L411.48 357.408L412.315 344.779V344.468C412.353 343.886 412.329 343.301 412.243 342.726C412.247 342.702 412.247 342.678 412.243 342.655C412.066 341.464 411.621 340.34 410.949 339.381C410.236 338.385 409.302 337.603 408.236 337.109C407.169 336.616 406.004 336.426 404.852 336.559C397.014 337.434 389.098 338.132 381.175 338.676C380.094 338.76 379.013 338.831 377.939 338.894C326.845 342.203 276.21 339.522 248.811 337.483L246.87 337.328C242.125 336.961 238.158 336.622 235.103 336.333C233.422 336.179 231.748 336.708 230.405 337.82C229.061 338.931 228.143 340.546 227.827 342.352C227.762 342.734 227.723 343.12 227.711 343.509L227.271 359.144L226.669 378.949L226.384 389.081V389.278V389.871L226.371 389.843Z" fill="#3F3D56"/>
<path opacity="0.1" d="M412.515 346.62L411.719 357.437L410.535 373.559L410.237 377.594L409.59 386.633L409.551 387.084V387.204L409.454 388.248L409.525 387.204H409.337L340.081 387.91L226.391 389.25V389.053L226.708 378.921L227.355 359.123L227.769 345.964C227.79 345.216 227.981 344.485 228.327 343.838C228.673 343.191 229.162 342.648 229.75 342.26C230.483 341.77 231.34 341.548 232.196 341.625C233.556 341.745 235.226 341.886 237.174 342.041C240.339 342.295 244.242 342.592 248.786 342.902C257.2 343.481 267.757 344.101 279.854 344.609C313.511 346.021 358.948 346.493 402.107 342.373C404.049 342.189 406.056 341.985 408.017 341.78C408.793 341.696 409.575 341.857 410.269 342.246C410.466 342.353 410.652 342.48 410.826 342.627C411.389 343.072 411.836 343.67 412.12 344.363C412.186 344.5 412.241 344.644 412.282 344.793C412.477 345.377 412.556 346 412.515 346.62V346.62Z" fill="black"/>
<path opacity="0.1" d="M192.947 356.279V358.53C192.947 359.349 192.735 360.15 192.334 360.842C191.933 361.534 191.36 362.088 190.681 362.439L164.726 362.982C164.036 362.637 163.452 362.084 163.042 361.387C162.632 360.69 162.415 359.88 162.416 359.052V356.936L192.947 356.279Z" fill="black"/>
<path d="M193.27 363.765L159.451 364.471V358.354L193.27 357.648V363.765Z" fill="#3F3D56"/>
<path opacity="0.1" d="M193.27 363.765L159.451 364.471V358.354L193.27 357.648V363.765Z" fill="black"/>
<path d="M194.565 363.765L160.746 364.471V358.354L194.565 357.648V363.765Z" fill="#3F3D56"/>
<g opacity="0.1">
<path opacity="0.1" d="M306.534 133.104C305.901 132.208 305.481 131.156 305.31 130.042C305.154 131.131 305.248 132.246 305.582 133.287C305.903 133.255 306.222 133.194 306.534 133.104Z" fill="black"/>
<path opacity="0.1" d="M298.314 137.789C298.191 136.924 298.111 136.052 298.074 135.178C298.074 136.046 298.074 136.921 298.074 137.796L298.314 137.789Z" fill="black"/>
<path opacity="0.1" d="M351.065 161.333C351.101 160.705 351.179 160.08 351.298 159.464C351.604 158.39 351.778 157.278 351.816 156.154C351.801 155.902 351.766 155.652 351.712 155.407C351.602 156.056 351.427 156.705 351.298 157.347C351.039 158.656 350.961 159.999 351.065 161.333Z" fill="black"/>
<path opacity="0.1" d="M337.602 139.531L338.307 140.089C338.902 139.62 339.459 139.096 339.971 138.523C340.214 138.155 340.365 137.725 340.409 137.274C340.452 136.824 340.386 136.368 340.217 135.954C340.152 136.115 340.07 136.267 339.971 136.406C339.175 137.521 337.414 138.134 337.602 139.531Z" fill="black"/>
<path opacity="0.1" d="M284.417 146.319C284.181 146.834 283.992 147.372 283.854 147.928C284.866 147.312 285.957 146.862 287.09 146.594L284.417 146.319Z" fill="black"/>
<path opacity="0.1" d="M293.343 138.642C292.917 138.387 292.511 138.097 292.126 137.775C292.109 138.054 292.129 138.334 292.184 138.607C292.571 138.587 292.958 138.599 293.343 138.642V138.642Z" fill="black"/>
<path opacity="0.1" d="M356.625 180.214C356.359 183.636 354.897 186.931 353.712 190.177C351.337 196.682 349.997 203.582 348.994 210.504C348.094 216.706 347.052 223.747 342.197 227.183C340.81 228.086 339.325 228.798 337.777 229.3C330.799 231.932 323.764 234.57 316.417 235.53C309.071 236.489 301.362 235.65 294.954 231.656C293.096 230.6 291.502 229.067 290.307 227.19C288.579 224.206 288.546 220.466 287.718 217.051C287.012 214.516 286.146 212.036 285.129 209.629C283.699 205.833 282.598 201.868 281.504 197.966C280.49 194.339 279.478 190.71 278.469 187.079C278.136 185.987 277.889 184.866 277.731 183.728C277.478 185.534 277.97 187.425 278.469 189.196C279.478 192.832 280.49 196.461 281.504 200.083C282.598 204.013 283.699 207.95 285.129 211.746C286.146 214.152 287.012 216.632 287.718 219.168C288.534 222.583 288.566 226.322 290.307 229.307C291.502 231.184 293.096 232.716 294.954 233.773C301.362 237.767 309.09 238.606 316.417 237.647C323.744 236.687 330.773 234.048 337.777 231.417C339.325 230.914 340.81 230.203 342.197 229.3C347.02 225.864 348.094 218.822 348.994 212.62C349.997 205.699 351.337 198.799 353.712 192.293C355.123 188.427 356.948 184.497 356.638 180.341C356.638 180.299 356.625 180.256 356.625 180.214Z" fill="black"/>
<path opacity="0.1" d="M279.155 177.484C279.155 177.484 279.155 177.434 279.155 177.406C279.272 176.162 279.171 174.905 278.857 173.702C278.728 172.927 278.644 172.145 278.605 171.359C278.53 172.851 278.615 174.348 278.857 175.818C278.961 176.369 279.077 176.926 279.155 177.484Z" fill="black"/>
<path opacity="0.1" d="M281.129 160.226C281.627 159.314 282.192 158.448 282.818 157.636C281.634 158.871 279.446 157.77 278.986 156.056C278.817 156.749 278.817 157.479 278.986 158.172C279.146 158.69 279.428 159.153 279.804 159.513C280.18 159.874 280.637 160.12 281.129 160.226V160.226Z" fill="black"/>
</g>
<path opacity="0.1" d="M442.787 341.251C442.787 341.251 444.839 349.365 442.787 356.421C440.736 363.476 442.787 341.251 442.787 341.251Z" fill="black"/>
<path opacity="0.1" d="M451.525 349.527C451.525 349.527 452.386 359.828 450.444 361.656C448.503 363.483 451.525 349.527 451.525 349.527Z" fill="black"/>
<path d="M128.797 241.908L194.565 241.203" stroke="#C6C6D0" stroke-width="2" stroke-miterlimit="10"/>
<path d="M128.797 250.707L194.565 250.008" stroke="#C6C6D0" stroke-width="2" stroke-miterlimit="10"/>
<path d="M128.797 259.512L194.565 258.806" stroke="#C6C6D0" stroke-width="2" stroke-miterlimit="10"/>
</g>
<defs>
<clipPath id="clip0">
<rect width="674" height="391" fill="white"/>
</clipPath>
</defs>
</svg>
