<svg width="477" height="477" viewBox="0 0 477 477" fill="none" xmlns="http://www.w3.org/2000/svg">
<circle cx="238.5" cy="238.5" r="238.5" fill="#4F4F4F"/>
<path d="M72.952 140.4H110.392V310.32H215.8V342H72.952V140.4ZM41.848 254.448L141.208 179.28L156.472 198.864L57.112 274.32L41.848 254.448ZM388.42 237.168C399.556 240.816 408.388 246.96 414.916 255.6C421.444 264.048 424.708 274.608 424.708 287.28C424.708 304.752 417.988 318.288 404.548 327.888C391.108 337.296 371.524 342 345.796 342H245.572V140.4H340.036C363.844 140.4 382.18 145.104 395.044 154.512C407.908 163.728 414.34 176.496 414.34 192.816C414.34 202.8 412.036 211.632 407.428 219.312C402.82 226.992 396.484 232.944 388.42 237.168ZM283.012 169.776V225.36H336.004C349.06 225.36 359.044 223.056 365.956 218.448C373.06 213.648 376.612 206.736 376.612 197.712C376.612 188.496 373.06 181.584 365.956 176.976C359.044 172.176 349.06 169.776 336.004 169.776H283.012ZM343.492 312.624C372.484 312.624 386.98 302.928 386.98 283.536C386.98 264.144 372.484 254.448 343.492 254.448H283.012V312.624H343.492Z" fill="#F2F2F2"/>
</svg>
