<svg width="27" height="27" viewBox="0 0 27 27" fill="none" xmlns="http://www.w3.org/2000/svg">
<path d="M12.2524 0.799679C6.26467 1.46399 1.44849 6.37987 0.797649 12.3586C0.0166459 19.0017 4.05183 24.7148 9.77919 26.5749V23.519C9.77919 23.519 9.25852 23.6519 8.60768 23.6519C6.78534 23.6519 6.00434 22.0576 5.87417 21.1275C5.744 20.5961 5.48367 20.1975 5.09317 19.7989C4.70267 19.666 4.5725 19.666 4.5725 19.5332C4.5725 19.2675 4.963 19.2675 5.09317 19.2675C5.87417 19.2675 6.52501 20.1975 6.78534 20.5961C7.43618 21.659 8.21718 21.9247 8.60768 21.9247C9.12835 21.9247 9.51885 21.7918 9.77919 21.659C9.90935 20.7289 10.2999 19.7989 11.0809 19.2675C8.08701 18.6032 5.87417 16.8759 5.87417 13.953C5.87417 12.4915 6.52501 11.03 7.43618 9.96714C7.30601 9.70141 7.17584 9.03711 7.17584 8.10707C7.17584 7.57563 7.17584 6.77846 7.56635 5.98129C7.56635 5.98129 9.38869 5.98129 11.211 7.70849C11.8619 7.44277 12.773 7.3099 13.6842 7.3099C14.5954 7.3099 15.5065 7.44277 16.2875 7.70849C17.9797 5.98129 19.9322 5.98129 19.9322 5.98129C20.1926 6.77846 20.1926 7.57563 20.1926 8.10707C20.1926 9.16997 20.0624 9.70141 19.9322 9.96714C20.8434 11.03 21.4942 12.3586 21.4942 13.953C21.4942 16.8759 19.2814 18.6032 16.2875 19.2675C17.0686 19.9318 17.5892 21.1275 17.5892 22.3233V26.7077C22.9261 24.9805 26.7009 19.9318 26.7009 14.0859C26.7009 6.11415 20.0624 -0.130354 12.2524 0.799679Z" fill="#828282"/>
</svg>
