<svg width="26" height="26" viewBox="0 0 26 26" fill="none" xmlns="http://www.w3.org/2000/svg">
<path d="M13 25.999C20.1797 25.999 26 20.1787 26 12.999C26 5.81929 20.1797 -0.00100708 13 -0.00100708C5.8203 -0.00100708 0 5.81929 0 12.999C0 20.1787 5.8203 25.999 13 25.999Z" fill="#828282"/>
<path d="M20.7674 14.0458V19.4054H17.66V14.405C17.66 13.1495 17.2114 12.292 16.0863 12.292C15.2277 12.292 14.7176 12.8693 14.4924 13.4282C14.4106 13.628 14.3895 13.9054 14.3895 14.1856V19.4052H11.2819C11.2819 19.4052 11.3236 10.9361 11.2819 10.0595H14.3897V11.3839C14.3835 11.3943 14.3747 11.4045 14.3691 11.4144H14.3897V11.3839C14.8027 10.7484 15.5392 9.84002 17.1903 9.84002C19.2347 9.84002 20.7674 11.1758 20.7674 14.0458ZM8.0311 5.5545C6.96812 5.5545 6.27267 6.25227 6.27267 7.16902C6.27267 8.0663 6.94796 8.78423 7.99031 8.78423H8.01047C9.09431 8.78423 9.7682 8.0663 9.7682 7.16902C9.74758 6.25227 9.09431 5.5545 8.0311 5.5545ZM6.45737 19.4054H9.56381V10.0595H6.45737V19.4054Z" fill="#F1F2F2"/>

</svg>
