<svg width="153" height="11" viewBox="0 0 153 11" fill="none" xmlns="http://www.w3.org/2000/svg">
<path d="M0.316 0.199999H2.136V8.46H7.26V10H0.316V0.199999ZM12.7741 10.14C11.4208 10.14 10.3661 9.762 9.61014 9.006C8.85414 8.24067 8.47614 7.14867 8.47614 5.73V0.199999H10.2961V5.66C10.2961 7.58267 11.1268 8.544 12.7881 8.544C14.4401 8.544 15.2661 7.58267 15.2661 5.66V0.199999H17.0581V5.73C17.0581 7.14867 16.6801 8.24067 15.9241 9.006C15.1775 9.762 14.1275 10.14 12.7741 10.14ZM22.981 5.898L21.427 7.494V10H19.607V0.199999H21.427V5.226L26.271 0.199999H28.315L24.199 4.582L28.567 10H26.439L22.981 5.898ZM35.7384 7.732H30.8384L29.8724 10H27.9964L32.4064 0.199999H34.1984L38.6224 10H36.7184L35.7384 7.732ZM35.1364 6.304L33.2884 2.02L31.4544 6.304H35.1364ZM42.9067 10.14C42.1507 10.14 41.4181 10.0327 40.7087 9.818C40.0087 9.60333 39.4534 9.31867 39.0427 8.964L39.6727 7.55C40.0741 7.86733 40.5641 8.12867 41.1427 8.334C41.7307 8.53 42.3187 8.628 42.9067 8.628C43.6347 8.628 44.1761 8.51133 44.5307 8.278C44.8947 8.04467 45.0767 7.73667 45.0767 7.354C45.0767 7.074 44.9741 6.84533 44.7687 6.668C44.5727 6.48133 44.3207 6.33667 44.0127 6.234C43.7047 6.13133 43.2847 6.01467 42.7527 5.884C42.0061 5.70667 41.3994 5.52933 40.9327 5.352C40.4754 5.17467 40.0787 4.89933 39.7427 4.526C39.4161 4.14333 39.2527 3.63 39.2527 2.986C39.2527 2.44467 39.3974 1.95467 39.6867 1.516C39.9854 1.068 40.4287 0.713333 41.0167 0.451999C41.6141 0.190666 42.3421 0.0599995 43.2007 0.0599995C43.7981 0.0599995 44.3861 0.134666 44.9647 0.284C45.5434 0.433333 46.0427 0.648 46.4627 0.928L45.8887 2.342C45.4594 2.09 45.0114 1.89867 44.5447 1.768C44.0781 1.63733 43.6254 1.572 43.1867 1.572C42.4681 1.572 41.9314 1.69333 41.5767 1.936C41.2314 2.17867 41.0587 2.50067 41.0587 2.902C41.0587 3.182 41.1567 3.41067 41.3527 3.588C41.5581 3.76533 41.8147 3.90533 42.1227 4.008C42.4307 4.11067 42.8507 4.22733 43.3827 4.358C44.1107 4.526 44.7081 4.70333 45.1747 4.89C45.6414 5.06733 46.0381 5.34267 46.3647 5.716C46.7007 6.08933 46.8687 6.59333 46.8687 7.228C46.8687 7.76933 46.7194 8.25933 46.4207 8.698C46.1314 9.13667 45.6881 9.48667 45.0907 9.748C44.4934 10.0093 43.7654 10.14 42.9067 10.14ZM56.2894 8.46V10H47.9314V8.782L53.6994 1.74H48.0294V0.199999H56.1074V1.418L50.3394 8.46H56.2894Z" fill="#828282"/>
<path d="M68.7698 4.904C69.3111 5.08133 69.7404 5.38 70.0578 5.8C70.3751 6.21067 70.5338 6.724 70.5338 7.34C70.5338 8.18933 70.2071 8.84733 69.5538 9.314C68.9004 9.77133 67.9484 10 66.6978 10H61.8258V0.199999H66.4178C67.5751 0.199999 68.4664 0.428666 69.0918 0.886C69.7171 1.334 70.0298 1.95467 70.0298 2.748C70.0298 3.23333 69.9178 3.66267 69.6938 4.036C69.4698 4.40933 69.1618 4.69867 68.7698 4.904ZM63.6458 1.628V4.33H66.2218C66.8564 4.33 67.3418 4.218 67.6778 3.994C68.0231 3.76067 68.1958 3.42467 68.1958 2.986C68.1958 2.538 68.0231 2.202 67.6778 1.978C67.3418 1.74467 66.8564 1.628 66.2218 1.628H63.6458ZM66.5858 8.572C67.9951 8.572 68.6998 8.10067 68.6998 7.158C68.6998 6.21533 67.9951 5.744 66.5858 5.744H63.6458V8.572H66.5858ZM77.0542 10.14C76.0555 10.14 75.1548 9.92533 74.3522 9.496C73.5495 9.05733 72.9195 8.45533 72.4622 7.69C72.0048 6.91533 71.7762 6.052 71.7762 5.1C71.7762 4.148 72.0048 3.28933 72.4622 2.524C72.9195 1.74933 73.5495 1.14733 74.3522 0.717999C75.1548 0.279333 76.0555 0.0599995 77.0542 0.0599995C78.0528 0.0599995 78.9535 0.279333 79.7562 0.717999C80.5588 1.14733 81.1888 1.74467 81.6462 2.51C82.1035 3.27533 82.3322 4.13867 82.3322 5.1C82.3322 6.06133 82.1035 6.92467 81.6462 7.69C81.1888 8.45533 80.5588 9.05733 79.7562 9.496C78.9535 9.92533 78.0528 10.14 77.0542 10.14ZM77.0542 8.544C77.7075 8.544 78.2955 8.39933 78.8182 8.11C79.3408 7.81133 79.7515 7.40067 80.0502 6.878C80.3488 6.346 80.4982 5.75333 80.4982 5.1C80.4982 4.44667 80.3488 3.85867 80.0502 3.336C79.7515 2.804 79.3408 2.39333 78.8182 2.104C78.2955 1.80533 77.7075 1.656 77.0542 1.656C76.4008 1.656 75.8128 1.80533 75.2902 2.104C74.7675 2.39333 74.3568 2.804 74.0582 3.336C73.7595 3.85867 73.6102 4.44667 73.6102 5.1C73.6102 5.75333 73.7595 6.346 74.0582 6.878C74.3568 7.40067 74.7675 7.81133 75.2902 8.11C75.8128 8.39933 76.4008 8.544 77.0542 8.544ZM90.6733 10L88.6713 7.13C88.5873 7.13933 88.4613 7.144 88.2933 7.144H86.0813V10H84.2613V0.199999H88.2933C89.1426 0.199999 89.88 0.339999 90.5053 0.62C91.14 0.899999 91.6253 1.30133 91.9613 1.824C92.2973 2.34667 92.4653 2.96733 92.4653 3.686C92.4653 4.42333 92.2833 5.058 91.9193 5.59C91.5646 6.122 91.0513 6.51867 90.3793 6.78L92.6333 10H90.6733ZM90.6313 3.686C90.6313 3.06067 90.426 2.58 90.0153 2.244C89.6046 1.908 89.0026 1.74 88.2093 1.74H86.0813V5.646H88.2093C89.0026 5.646 89.6046 5.478 90.0153 5.142C90.426 4.79667 90.6313 4.31133 90.6313 3.686ZM97.8755 5.898L96.3215 7.494V10H94.5015V0.199999H96.3215V5.226L101.166 0.199999H103.21L99.0935 4.582L103.462 10H101.334L97.8755 5.898ZM108.923 10.14C107.925 10.14 107.024 9.92533 106.221 9.496C105.419 9.05733 104.789 8.45533 104.331 7.69C103.874 6.91533 103.645 6.052 103.645 5.1C103.645 4.148 103.874 3.28933 104.331 2.524C104.789 1.74933 105.419 1.14733 106.221 0.717999C107.024 0.279333 107.925 0.0599995 108.923 0.0599995C109.922 0.0599995 110.823 0.279333 111.625 0.717999C112.428 1.14733 113.058 1.74467 113.515 2.51C113.973 3.27533 114.201 4.13867 114.201 5.1C114.201 6.06133 113.973 6.92467 113.515 7.69C113.058 8.45533 112.428 9.05733 111.625 9.496C110.823 9.92533 109.922 10.14 108.923 10.14ZM108.923 8.544C109.577 8.544 110.165 8.39933 110.687 8.11C111.21 7.81133 111.621 7.40067 111.919 6.878C112.218 6.346 112.367 5.75333 112.367 5.1C112.367 4.44667 112.218 3.85867 111.919 3.336C111.621 2.804 111.21 2.39333 110.687 2.104C110.165 1.80533 109.577 1.656 108.923 1.656C108.27 1.656 107.682 1.80533 107.159 2.104C106.637 2.39333 106.226 2.804 105.927 3.336C105.629 3.85867 105.479 4.44667 105.479 5.1C105.479 5.75333 105.629 6.346 105.927 6.878C106.226 7.40067 106.637 7.81133 107.159 8.11C107.682 8.39933 108.27 8.544 108.923 8.544ZM130.138 0.199999L126.89 10H124.958L122.536 2.748L120.072 10H118.126L114.878 0.199999H116.768L119.204 7.648L121.738 0.199999H123.418L125.896 7.69L128.402 0.199999H130.138ZM134.659 10.14C133.903 10.14 133.17 10.0327 132.461 9.818C131.761 9.60333 131.205 9.31867 130.795 8.964L131.425 7.55C131.826 7.86733 132.316 8.12867 132.895 8.334C133.483 8.53 134.071 8.628 134.659 8.628C135.387 8.628 135.928 8.51133 136.283 8.278C136.647 8.04467 136.829 7.73667 136.829 7.354C136.829 7.074 136.726 6.84533 136.521 6.668C136.325 6.48133 136.073 6.33667 135.765 6.234C135.457 6.13133 135.037 6.01467 134.505 5.884C133.758 5.70667 133.151 5.52933 132.685 5.352C132.227 5.17467 131.831 4.89933 131.495 4.526C131.168 4.14333 131.005 3.63 131.005 2.986C131.005 2.44467 131.149 1.95467 131.439 1.516C131.737 1.068 132.181 0.713333 132.769 0.451999C133.366 0.190666 134.094 0.0599995 134.953 0.0599995C135.55 0.0599995 136.138 0.134666 136.717 0.284C137.295 0.433333 137.795 0.648 138.215 0.928L137.641 2.342C137.211 2.09 136.763 1.89867 136.297 1.768C135.83 1.63733 135.377 1.572 134.939 1.572C134.22 1.572 133.683 1.69333 133.329 1.936C132.983 2.17867 132.811 2.50067 132.811 2.902C132.811 3.182 132.909 3.41067 133.105 3.588C133.31 3.76533 133.567 3.90533 133.875 4.008C134.183 4.11067 134.603 4.22733 135.135 4.358C135.863 4.526 136.46 4.70333 136.927 4.89C137.393 5.06733 137.79 5.34267 138.117 5.716C138.453 6.08933 138.621 6.59333 138.621 7.228C138.621 7.76933 138.471 8.25933 138.173 8.698C137.883 9.13667 137.44 9.48667 136.843 9.748C136.245 10.0093 135.517 10.14 134.659 10.14ZM143.799 5.898L142.245 7.494V10H140.425V0.199999H142.245V5.226L147.089 0.199999H149.133L145.017 4.582L149.385 10H147.257L143.799 5.898ZM150.625 0.199999H152.445V10H150.625V0.199999Z" fill="black"/>
</svg>
